<svg xmlns="http://www.w3.org/2000/svg" width="238" height="32" viewBox="0 0 62.971 8.467" xmlns:v="https://vecta.io/nano"><path d="M7.112 8.467h4.699a.86.86 0 0 0 .423-.127c.13-.074.264-.168.339-.296s.127-.275.127-.423-.052-.295-.127-.423L9.398 1.736a.77.77 0 0 0-.296-.296c-.13-.074-.316-.127-.466-.127a.86.86 0 0 0-.423.127.77.77 0 0 0-.296.296l-.804 1.397L5.503.423C5.428.295 5.337.159 5.207.085S4.934 0 4.784 0 4.49.01 4.36.085s-.264.21-.339.339L.085 7.197C.01 7.325 0 7.471 0 7.62s.01.295.085.423.209.222.339.296a.86.86 0 0 0 .423.127H3.81c1.174 0 2.029-.527 2.625-1.524l1.439-2.498.762-1.312 2.328 3.979h-3.09zM3.768 7.112H1.693l3.09-5.334L6.35 4.445 5.312 6.254c-.396.647-.847.858-1.545.858z" fill="#06f"/><path d="M18.881 8.399V2.472h1.372v5.927zm-4.064 0V2.472h1.372v5.927zm1.27-2.43v-1.16h2.896v1.16zm7.739 2.498q-.779 0-1.372-.305-.584-.305-.906-.83-.322-.533-.322-1.211 0-.686.313-1.211.322-.533.872-.83.55-.305 1.245-.305.669 0 1.202.288.542.279.855.813.313.525.313 1.262 0 .076-.009.178-.009.093-.017.178h-3.7v-.77h3.006l-.508.229q0-.356-.144-.618-.144-.262-.398-.406-.254-.152-.593-.152-.339 0-.601.152-.254.144-.398.415-.144.262-.144.627v.203q0 .373.161.66.169.279.466.432.305.144.711.144.364 0 .635-.11.279-.11.508-.33l.703.762q-.313.356-.787.55-.474.186-1.092.186zm3.082-.068V2.117h1.321v6.282zm2.548 0V2.117h1.321v6.282zm4.716.068q-.728 0-1.295-.305-.559-.305-.889-.83-.322-.533-.322-1.211 0-.686.322-1.211.33-.533.889-.83.567-.305 1.295-.305.72 0 1.287.305.567.296.889.821.322.525.322 1.219 0 .677-.322 1.211-.322.525-.889.83-.567.305-1.287.305zm0-1.084q.33 0 .593-.152.262-.152.415-.432.152-.288.152-.677 0-.398-.152-.677-.152-.279-.415-.432-.262-.152-.593-.152-.33 0-.593.152-.262.152-.423.432-.152.279-.152.677 0 .389.152.677.161.279.423.432.262.152.593.152zm4.555 1.016l-1.939-5.927h1.422l1.685 5.249h-.711l1.761-5.249h1.27l1.693 5.249h-.686l1.727-5.249h1.312l-1.939 5.927H42.85l-1.499-4.606h.389L40.2 8.399zm10.033.068q-.728 0-1.295-.305-.559-.305-.889-.83-.322-.533-.322-1.211 0-.686.322-1.211.33-.533.889-.83.567-.305 1.295-.305.72 0 1.287.305.567.296.889.821.322.525.322 1.219 0 .677-.322 1.211-.322.525-.889.83-.567.305-1.287.305zm0-1.084q.33 0 .593-.152.262-.152.415-.432.152-.288.152-.677 0-.398-.152-.677-.152-.279-.415-.432-.262-.152-.593-.152-.33 0-.593.152-.262.152-.423.432-.152.279-.152.677 0 .389.152.677.161.279.423.432.262.152.593.152zm3.378 1.016V3.844h1.262v1.287l-.178-.373q.203-.483.652-.728.449-.254 1.092-.254v1.219q-.085-.008-.152-.008-.068-.008-.144-.008-.542 0-.881.313-.33.305-.33.957v2.151zm3.615 0V2.117h1.321v6.282zm4.504.068q-.643 0-1.16-.288-.516-.296-.821-.821-.296-.525-.296-1.236 0-.72.296-1.245.305-.525.821-.813.516-.288 1.16-.288.576 0 1.008.254.432.254.669.77.237.516.237 1.321 0 .796-.229 1.321-.229.516-.66.77-.423.254-1.024.254zm.229-1.084q.322 0 .584-.152.262-.152.415-.432.161-.288.161-.677 0-.398-.161-.677-.152-.279-.415-.432-.262-.152-.584-.152-.33 0-.593.152-.262.152-.423.432-.152.279-.152.677 0 .389.152.677.161.279.423.432.262.152.593.152zm1.194 1.016v-.931l.025-1.355-.085-1.346v-2.65h1.321v6.282z" fill="#fff"/></svg>