<svg xmlns="http://www.w3.org/2000/svg" width="32" height="32" viewBox="0 0 8.467 8.467" xmlns:v="https://vecta.io/nano"><path d="M3.189 1.411c-.1 0-.196.007-.282.056a.67.67 0 0 0-.226.226L.056 6.209c-.05.086-.056.183-.056.282s.006.196.056.282.139.148.226.197.182.085.282.085H2.54c.783 0 1.353-.351 1.75-1.016l.96-1.665.508-.875L7.31 6.153h-2.06l-.508.903h3.133c.1 0 .196-.035.282-.085s.176-.112.226-.197a.57.57 0 0 0 .085-.282.57.57 0 0 0-.085-.282L6.265 2.568c-.05-.086-.111-.148-.197-.197s-.211-.085-.311-.085-.196.035-.282.085-.147.112-.197.197l-.536.931-1.072-1.806c-.05-.086-.111-.176-.198-.226s-.182-.056-.282-.056zm0 1.185l1.044 1.778-.692 1.206c-.264.431-.564.573-1.029.573H1.129z" fill="#06f"/></svg>